<?xml version="1.0" encoding="UTF-8" ?>
<!DOCTYPE svg PUBLIC "-//W3C//DTD SVG 1.1//EN" "http://www.w3.org/Graphics/SVG/1.1/DTD/svg11.dtd">
<svg width="1787pt" height="648pt" viewBox="0 0 1787 648" version="1.1" xmlns="http://www.w3.org/2000/svg">
<g id="#7ddab7ff">
<path fill="#7ddab7" opacity="1.00" d=" M 338.96 17.20 C 363.30 11.47 389.67 14.54 411.85 26.18 C 435.58 38.31 454.31 59.80 463.04 85.00 C 471.62 109.14 471.03 136.42 461.24 160.12 C 457.59 169.34 452.09 177.63 447.15 186.18 C 389.47 153.10 331.83 119.93 274.16 86.82 C 270.56 84.95 267.07 82.85 264.03 80.14 C 269.42 71.28 274.17 61.96 280.77 53.90 C 295.33 35.61 316.20 22.51 338.96 17.20 Z" />
</g>
<g id="#ffffffff">
<path fill="#ffffff" opacity="1.00" d=" M 732.13 31.96 C 731.67 26.73 736.78 21.83 741.97 22.34 C 754.65 22.36 767.33 22.35 780.02 22.35 C 790.39 22.44 800.93 21.75 811.09 24.34 C 822.67 26.68 833.69 32.57 841.31 41.69 C 852.45 55.00 855.25 73.84 851.71 90.48 C 849.29 103.42 841.47 115.24 830.39 122.37 C 816.41 131.76 798.91 133.44 782.50 132.86 C 782.45 142.24 782.49 151.62 782.49 161.00 C 782.97 166.12 778.14 171.08 773.02 170.74 C 762.32 170.73 751.63 170.77 740.94 170.73 C 737.33 170.92 734.55 168.08 732.77 165.27 C 731.87 162.95 732.17 160.42 732.12 158.00 C 732.15 115.99 732.13 73.97 732.13 31.96 M 737.65 31.87 C 737.64 75.53 737.63 119.20 737.65 162.86 C 738.44 163.64 739.24 164.43 740.05 165.22 C 751.03 165.21 762.02 165.25 773.01 165.22 C 774.80 165.57 775.79 163.85 777.00 162.90 C 776.95 151.05 776.94 139.20 777.01 127.35 C 790.37 127.39 804.20 128.11 816.89 123.12 C 830.04 118.45 841.11 107.76 845.14 94.27 C 849.27 80.32 848.61 64.44 841.49 51.55 C 835.38 40.48 824.04 33.05 811.92 30.07 C 801.52 27.24 790.66 27.94 780.00 27.86 C 766.66 27.85 753.32 27.90 739.98 27.84 C 738.99 29.05 737.27 30.05 737.65 31.87 Z" />
<path fill="#ffffff" opacity="1.00" d=" M 856.79 32.03 C 856.30 26.65 861.60 21.69 866.93 22.34 C 886.61 22.39 906.30 22.30 925.99 22.39 C 939.30 22.84 953.26 25.60 964.03 33.90 C 973.05 40.66 979.55 50.76 981.64 61.87 C 985.25 78.14 982.65 96.63 971.77 109.70 C 968.69 113.55 964.84 116.67 960.82 119.46 C 969.12 132.42 977.50 145.32 985.77 158.30 C 988.03 161.48 985.85 165.27 984.01 168.06 C 982.82 170.17 980.28 170.77 978.04 170.74 C 965.34 170.76 952.64 170.73 939.94 170.75 C 937.39 170.85 934.49 170.18 933.25 167.71 C 925.47 155.36 917.77 142.96 910.02 130.59 C 909.30 130.58 907.86 130.58 907.15 130.58 C 907.15 140.69 907.14 150.80 907.16 160.91 C 907.69 165.92 903.07 170.88 898.06 170.73 C 887.36 170.75 876.67 170.75 865.97 170.73 C 860.98 170.95 856.30 166.08 856.79 161.07 C 856.80 118.06 856.81 75.05 856.79 32.03 M 862.29 30.26 C 862.31 74.43 862.33 118.60 862.29 162.77 C 863.11 163.60 863.94 164.43 864.80 165.25 C 876.25 165.21 887.71 165.20 899.17 165.26 C 899.99 164.41 900.83 163.55 901.68 162.70 C 901.58 150.16 901.66 137.61 901.64 125.07 C 905.43 125.07 909.23 125.07 913.03 125.07 C 921.40 138.44 929.77 151.82 938.13 165.21 C 951.83 165.27 965.53 165.17 979.24 165.26 C 979.95 164.05 980.65 162.84 981.39 161.64 C 972.02 146.94 962.55 132.31 953.12 117.65 C 964.34 111.95 973.20 101.55 976.08 89.19 C 978.85 77.04 978.24 63.68 972.64 52.39 C 967.15 41.57 956.69 33.75 945.07 30.60 C 933.71 27.19 921.73 27.93 910.02 27.86 C 894.96 27.84 879.90 27.91 864.85 27.82 C 863.98 28.63 863.13 29.45 862.29 30.26 Z" />
<path fill="#ffffff" opacity="1.00" d=" M 998.32 22.42 C 1009.57 22.27 1020.83 22.37 1032.09 22.37 C 1035.68 22.19 1038.41 25.06 1040.22 27.84 C 1041.13 30.11 1040.80 32.63 1040.88 35.02 C 1040.85 77.03 1040.87 119.03 1040.87 161.04 C 1041.39 166.32 1036.28 171.28 1031.04 170.75 C 1020.35 170.71 1009.66 170.78 998.98 170.72 C 995.60 170.85 993.06 168.23 991.24 165.70 C 989.99 163.34 990.40 160.58 990.33 158.02 C 990.35 116.02 990.34 74.01 990.33 32.01 C 989.94 27.44 993.81 22.91 998.32 22.42 M 995.85 31.93 C 995.84 75.63 995.85 119.32 995.85 163.02 C 997.09 163.90 998.13 165.59 999.91 165.23 C 1010.92 165.22 1021.94 165.24 1032.96 165.21 C 1033.73 164.45 1034.52 163.69 1035.32 162.94 C 1035.40 119.25 1035.34 75.56 1035.35 31.88 C 1035.71 30.06 1034.01 29.06 1033.04 27.84 C 1022.02 27.90 1011.00 27.84 999.98 27.86 C 997.79 27.58 995.56 29.73 995.85 31.93 Z" />
<path fill="#ffffff" opacity="1.00" d=" M 1052.63 32.03 C 1052.15 27.00 1056.90 22.09 1061.93 22.35 C 1073.62 22.35 1085.31 22.35 1097.00 22.35 C 1099.52 22.26 1102.27 23.15 1103.43 25.58 C 1111.25 38.97 1118.95 52.43 1126.77 65.81 C 1134.65 52.29 1142.41 38.68 1150.36 25.20 C 1151.61 22.81 1154.50 22.28 1156.97 22.34 C 1168.34 22.36 1179.72 22.36 1191.09 22.34 C 1196.27 21.85 1201.35 26.77 1200.90 31.99 C 1200.90 75.00 1200.89 118.02 1200.90 161.03 C 1201.37 166.30 1196.30 171.29 1191.03 170.75 C 1180.66 170.72 1170.29 170.76 1159.93 170.74 C 1154.88 170.94 1150.18 165.99 1150.71 160.94 C 1150.73 145.51 1150.71 130.08 1150.72 114.65 C 1145.01 123.95 1139.29 133.24 1133.60 142.55 C 1131.14 148.06 1121.64 148.04 1119.20 142.53 C 1113.57 133.34 1107.91 124.17 1102.27 114.99 C 1102.27 130.32 1102.26 145.65 1102.28 160.98 C 1102.78 166.03 1098.07 170.97 1093.02 170.74 C 1082.65 170.75 1072.28 170.74 1061.91 170.74 C 1056.84 171.00 1052.09 166.07 1052.63 161.00 C 1052.64 118.01 1052.64 75.02 1052.63 32.03 M 1058.11 30.18 C 1058.17 74.41 1058.14 118.63 1058.13 162.85 C 1058.98 163.66 1059.84 164.47 1060.73 165.28 C 1071.89 165.19 1083.05 165.19 1094.21 165.28 C 1095.05 164.44 1095.92 163.61 1096.79 162.78 C 1096.73 140.41 1096.73 118.04 1096.79 95.67 C 1106.20 110.75 1115.38 125.96 1124.79 141.04 C 1125.61 141.03 1127.25 141.01 1128.07 141.00 C 1133.68 131.94 1139.23 122.85 1144.81 113.77 C 1148.70 107.87 1151.86 101.44 1156.20 95.87 C 1156.26 118.18 1156.24 140.50 1156.21 162.81 C 1157.05 163.63 1157.90 164.45 1158.78 165.27 C 1170.17 165.16 1181.57 165.26 1192.97 165.22 C 1193.75 164.44 1194.55 163.67 1195.36 162.89 C 1195.40 119.24 1195.38 75.59 1195.38 31.94 C 1195.75 30.08 1194.04 29.06 1193.04 27.84 C 1180.40 27.90 1167.76 27.85 1155.12 27.86 C 1145.63 44.15 1136.28 60.53 1126.72 76.77 C 1117.25 60.44 1107.89 44.05 1098.28 27.80 C 1086.17 27.96 1074.05 27.80 1061.94 27.88 C 1060.22 27.63 1059.27 29.29 1058.11 30.18 Z" />
<path fill="#ffffff" opacity="1.00" d=" M 1211.97 32.02 C 1211.46 26.71 1216.66 21.77 1221.92 22.34 C 1253.95 22.36 1285.98 22.36 1318.00 22.34 C 1323.26 21.76 1328.51 26.67 1328.00 32.00 C 1327.99 41.35 1328.01 50.69 1328.00 60.03 C 1328.33 64.87 1323.81 69.59 1318.96 69.41 C 1299.95 69.46 1280.93 69.36 1261.92 69.46 C 1261.92 70.86 1261.95 72.27 1262.00 73.68 C 1278.67 73.67 1295.34 73.68 1312.02 73.67 C 1317.11 73.17 1322.08 77.91 1321.77 83.02 C 1321.77 91.70 1321.77 100.38 1321.77 109.05 C 1322.09 114.17 1317.14 118.96 1312.03 118.48 C 1295.33 118.48 1278.62 118.43 1261.92 118.50 C 1261.92 120.23 1261.97 121.96 1262.04 123.69 C 1281.02 123.64 1300.00 123.70 1318.99 123.66 C 1324.11 123.09 1329.18 127.88 1328.90 133.01 C 1328.91 142.35 1328.89 151.69 1328.90 161.03 C 1329.37 166.29 1324.31 171.30 1319.04 170.75 C 1286.34 170.72 1253.63 170.76 1220.93 170.73 C 1216.01 170.82 1211.46 165.99 1211.97 161.05 C 1211.97 118.04 1211.97 75.03 1211.97 32.02 M 1217.44 30.37 C 1217.50 74.48 1217.50 118.60 1217.44 162.71 C 1218.24 163.55 1219.04 164.40 1219.88 165.24 C 1253.58 165.21 1287.27 165.24 1320.97 165.22 C 1321.75 164.44 1322.55 163.66 1323.37 162.88 C 1323.42 152.48 1323.33 142.08 1323.42 131.68 C 1322.58 130.83 1321.77 129.99 1320.95 129.16 C 1299.47 129.23 1277.98 129.13 1256.50 129.21 C 1256.37 123.82 1256.48 118.43 1256.41 113.03 C 1275.55 112.85 1294.69 113.01 1313.83 112.95 C 1314.60 112.21 1315.39 111.46 1316.20 110.72 C 1316.34 101.06 1316.17 91.39 1316.30 81.73 C 1315.46 80.87 1314.66 80.02 1313.86 79.17 C 1294.74 79.23 1275.63 79.12 1256.52 79.22 C 1256.36 74.15 1256.49 69.09 1256.40 64.02 C 1277.61 63.77 1298.83 63.93 1320.05 63.94 C 1320.87 63.08 1321.70 62.23 1322.55 61.37 C 1322.42 50.98 1322.56 40.58 1322.48 30.19 C 1321.65 29.41 1320.84 28.64 1320.05 27.86 C 1286.67 27.85 1253.28 27.88 1219.90 27.85 C 1219.06 28.69 1218.24 29.53 1217.44 30.37 Z" />
<path fill="#ffffff" opacity="1.00" d=" M 776.97 63.53 C 784.59 63.92 792.55 62.43 799.89 65.05 C 810.65 68.82 811.30 86.18 801.44 91.37 C 793.92 95.33 785.10 93.25 776.98 93.78 C 776.95 83.70 776.97 73.61 776.97 63.53 M 782.48 69.05 C 782.48 75.45 782.48 81.85 782.48 88.26 C 786.32 88.20 790.18 88.43 794.01 88.09 C 797.66 87.75 801.53 85.60 802.51 81.85 C 803.26 77.99 803.03 72.93 799.16 70.79 C 794.07 67.98 788.01 69.39 782.48 69.05 Z" />
<path fill="#ffffff" opacity="1.00" d=" M 901.63 64.48 C 908.76 64.49 915.89 64.42 923.02 64.50 C 927.55 64.65 932.54 65.75 935.56 69.42 C 940.68 76.14 938.32 88.07 929.54 90.40 C 920.44 92.59 910.91 91.02 901.64 91.49 C 901.63 82.49 901.64 73.49 901.63 64.48 M 907.15 69.98 C 907.14 75.31 907.15 80.65 907.14 85.99 C 912.45 85.96 917.75 86.04 923.06 85.96 C 925.95 85.95 929.11 85.29 931.15 83.05 C 933.04 80.87 932.79 77.71 932.38 75.06 C 931.59 71.86 928.09 70.39 925.10 70.15 C 919.12 69.77 913.13 70.08 907.15 69.98 Z" />
<path fill="#ffffff" opacity="1.00" d=" M 1672.81 259.72 C 1688.68 247.00 1710.69 245.49 1730.01 249.15 C 1744.88 251.76 1759.00 258.59 1770.00 268.96 C 1771.74 270.91 1771.50 273.97 1770.05 276.03 C 1764.34 284.68 1758.52 293.28 1752.82 301.94 C 1750.25 306.83 1742.99 307.13 1738.96 303.96 C 1729.33 297.45 1717.54 291.93 1705.66 294.36 C 1711.01 298.09 1717.75 298.91 1723.92 300.64 C 1730.72 302.12 1737.31 304.40 1743.85 306.71 C 1753.55 311.02 1763.03 317.13 1768.41 326.59 C 1776.43 341.27 1775.44 360.02 1767.65 374.59 C 1759.55 389.29 1743.31 397.50 1727.12 399.54 C 1700.52 402.84 1672.02 395.09 1652.23 376.62 C 1652.19 380.74 1652.28 384.87 1652.22 389.00 C 1652.39 393.78 1647.78 398.32 1643.00 398.06 C 1610.33 398.09 1577.65 398.06 1544.98 398.08 C 1540.04 398.54 1535.16 394.02 1535.31 389.07 C 1535.28 346.03 1535.33 302.99 1535.29 259.95 C 1534.51 254.14 1540.20 248.72 1545.97 249.67 C 1577.98 249.71 1609.99 249.67 1642.00 249.69 C 1646.92 249.39 1651.65 254.11 1651.33 259.05 C 1651.34 268.36 1651.32 277.67 1651.34 286.99 C 1651.84 292.07 1647.14 297.04 1642.04 296.75 C 1623.15 296.74 1604.25 296.79 1585.36 296.72 C 1585.30 298.14 1585.27 299.56 1585.26 300.99 C 1602.19 301.04 1619.13 300.98 1636.07 301.02 C 1640.73 300.87 1645.19 305.26 1645.09 309.94 C 1645.14 318.62 1645.08 327.29 1645.12 335.97 C 1645.67 341.37 1640.43 346.43 1635.07 345.81 C 1618.48 345.79 1601.89 345.81 1585.30 345.80 C 1585.27 347.53 1585.27 349.26 1585.28 350.99 C 1604.55 351.04 1623.83 350.98 1643.10 351.01 C 1646.79 350.67 1649.61 353.53 1651.51 356.35 C 1652.55 358.80 1652.14 361.54 1652.25 364.15 C 1657.91 356.87 1663.66 349.66 1669.33 342.39 C 1672.14 338.07 1679.28 337.45 1682.89 341.09 C 1691.69 348.22 1702.49 353.48 1713.95 353.96 C 1717.16 354.06 1720.64 354.38 1723.55 352.70 C 1715.92 348.57 1707.21 347.33 1698.98 344.95 C 1689.51 342.30 1679.99 339.03 1672.04 333.10 C 1664.63 327.82 1658.94 319.93 1656.92 311.00 C 1652.08 292.82 1657.69 271.51 1672.81 259.72 M 1675.53 264.58 C 1661.91 275.73 1657.64 295.57 1662.83 311.99 C 1665.09 318.98 1669.89 324.98 1675.90 329.15 C 1683.72 334.63 1692.92 337.66 1702.05 340.19 C 1709.46 342.27 1717.17 343.55 1724.20 346.82 C 1726.63 347.92 1729.24 350.02 1728.77 353.04 C 1728.77 357.11 1724.30 358.93 1720.88 359.29 C 1705.22 360.90 1689.77 354.25 1678.02 344.22 C 1676.85 344.33 1675.70 344.45 1674.58 344.58 C 1667.75 353.30 1660.87 362.00 1654.03 370.72 C 1671.88 388.67 1698.18 396.63 1723.12 394.50 C 1736.20 393.38 1749.59 388.47 1758.34 378.32 C 1767.18 368.22 1769.89 353.91 1767.77 340.90 C 1766.55 333.33 1762.69 326.22 1756.94 321.15 C 1744.47 310.18 1727.56 307.33 1712.04 303.13 C 1708.81 302.14 1705.50 301.17 1702.71 299.24 C 1699.49 297.24 1699.62 291.80 1702.93 289.96 C 1706.23 287.95 1710.28 288.08 1714.02 288.36 C 1724.98 289.39 1735.20 294.35 1744.00 300.79 C 1745.09 300.60 1746.19 300.42 1747.32 300.25 C 1753.46 291.05 1759.67 281.90 1765.67 272.61 C 1752.03 259.43 1732.73 253.21 1713.98 252.96 C 1700.41 252.49 1686.09 255.64 1675.53 264.58 M 1543.17 255.15 C 1542.30 256.32 1540.57 257.22 1540.82 258.90 C 1540.78 302.64 1540.83 346.39 1540.79 390.14 C 1541.60 390.95 1542.44 391.77 1543.30 392.59 C 1577.04 392.50 1610.78 392.61 1644.52 392.54 C 1645.33 391.40 1646.86 390.52 1646.70 388.93 C 1646.73 379.27 1646.73 369.61 1646.70 359.96 C 1646.79 358.39 1645.14 357.56 1644.33 356.47 C 1622.80 356.55 1601.27 356.55 1579.75 356.47 C 1579.79 351.07 1579.75 345.68 1579.78 340.29 C 1598.91 340.30 1618.05 340.27 1637.18 340.31 C 1637.98 339.46 1638.80 338.61 1639.63 337.76 C 1639.51 328.54 1639.66 319.31 1639.57 310.09 C 1639.74 308.45 1638.07 307.60 1637.22 306.48 C 1618.07 306.53 1598.91 306.56 1579.75 306.46 C 1579.79 301.38 1579.76 296.31 1579.78 291.23 C 1600.94 291.27 1622.11 291.18 1643.27 291.28 C 1644.11 290.46 1644.97 289.65 1645.85 288.83 C 1645.77 278.37 1645.92 267.92 1645.77 257.46 C 1645.01 256.73 1644.28 256.00 1643.57 255.26 C 1610.11 255.08 1576.64 255.30 1543.17 255.15 Z" />
<path fill="#ffffff" opacity="1.00" d=" M 722.96 256.09 C 724.57 253.37 726.38 249.74 730.06 249.77 C 743.01 249.57 755.97 249.74 768.93 249.69 C 771.64 249.52 774.79 250.63 775.59 253.51 C 782.78 274.63 789.83 295.79 797.01 316.90 C 804.17 295.76 811.26 274.60 818.44 253.46 C 819.25 250.63 822.35 249.53 825.04 249.69 C 836.71 249.66 848.39 249.71 860.07 249.67 C 862.54 249.72 865.59 249.47 867.33 251.64 C 869.40 254.18 871.96 257.45 870.35 260.89 C 853.55 305.57 836.55 350.18 819.68 394.84 C 819.01 397.32 816.69 399.04 814.12 398.96 C 802.75 399.09 791.38 399.01 780.01 399.00 C 777.43 399.16 774.65 397.98 773.84 395.36 C 757.00 351.07 740.28 306.72 723.46 262.42 C 722.76 260.40 721.80 258.14 722.96 256.09 M 730.17 255.18 C 729.39 256.19 728.62 257.20 727.87 258.23 C 730.10 264.86 732.78 271.34 735.20 277.91 C 749.85 316.45 764.30 355.07 779.08 393.56 C 790.83 393.45 802.58 393.55 814.33 393.51 C 831.18 348.99 848.04 304.47 864.90 259.96 C 866.05 258.23 864.08 256.76 863.49 255.28 C 850.18 255.11 836.87 255.21 823.56 255.23 C 814.75 281.46 805.89 307.67 797.03 333.88 C 788.06 307.70 779.28 281.45 770.46 255.23 C 757.03 255.15 743.60 255.23 730.17 255.18 Z" />
<path fill="#ffffff" opacity="1.00" d=" M 872.30 258.95 C 872.05 253.93 876.97 249.20 882.00 249.68 C 914.33 249.70 946.66 249.68 979.00 249.69 C 983.91 249.38 988.64 254.10 988.33 259.03 C 988.34 268.37 988.32 277.70 988.34 287.04 C 988.83 292.10 984.12 297.04 979.04 296.75 C 960.14 296.75 941.24 296.78 922.34 296.73 C 922.30 298.15 922.28 299.57 922.27 300.99 C 939.18 301.04 956.10 300.98 973.02 301.02 C 977.73 300.84 982.24 305.29 982.09 310.02 C 982.14 318.66 982.08 327.30 982.12 335.95 C 982.65 340.95 978.10 345.89 973.10 345.79 C 956.16 345.84 939.22 345.76 922.28 345.83 C 922.27 347.55 922.28 349.28 922.31 351.01 C 941.55 351.02 960.80 351.00 980.05 351.01 C 985.17 350.79 989.84 355.93 989.24 361.02 C 989.21 370.36 989.26 379.71 989.22 389.05 C 989.36 393.79 984.80 398.28 980.06 398.06 C 947.36 398.09 914.65 398.06 881.95 398.08 C 876.62 398.55 871.64 393.35 872.29 388.05 C 872.32 345.02 872.29 301.98 872.30 258.95 M 880.18 255.15 C 879.28 256.32 877.57 257.24 877.82 258.94 C 877.78 302.65 877.85 346.37 877.78 390.08 C 878.59 390.91 879.42 391.75 880.26 392.58 C 913.99 392.53 947.73 392.58 981.47 392.56 C 982.25 391.44 983.83 390.60 983.70 389.04 C 983.73 379.36 983.73 369.67 983.70 359.99 C 983.81 358.39 982.16 357.56 981.32 356.47 C 959.79 356.54 938.27 356.57 916.74 356.45 C 916.87 351.20 916.63 345.94 916.84 340.69 C 917.39 340.59 918.48 340.38 919.03 340.27 C 937.40 340.32 955.78 340.25 974.16 340.31 C 974.97 339.46 975.80 338.61 976.63 337.76 C 976.51 328.10 976.66 318.44 976.55 308.79 C 975.73 308.02 974.93 307.27 974.13 306.51 C 955.01 306.50 935.89 306.55 916.76 306.49 C 916.78 301.40 916.76 296.32 916.78 291.23 C 937.53 291.23 958.27 291.25 979.02 291.23 C 980.74 291.51 981.68 289.77 982.87 288.88 C 982.76 278.88 982.89 268.89 982.82 258.90 C 982.93 257.01 981.05 255.08 979.15 255.22 C 946.16 255.14 913.17 255.27 880.18 255.15 Z" />
<path fill="#ffffff" opacity="1.00" d=" M 995.80 258.99 C 995.51 254.16 1000.14 249.47 1004.97 249.69 C 1015.30 249.68 1025.64 249.67 1035.97 249.70 C 1038.17 249.63 1040.54 250.30 1041.76 252.29 C 1054.29 269.27 1066.61 286.40 1079.21 303.33 C 1079.40 288.55 1079.23 273.78 1079.29 259.00 C 1079.01 253.96 1083.93 249.20 1088.98 249.68 C 1099.31 249.70 1109.65 249.67 1119.99 249.69 C 1124.89 249.40 1129.58 254.09 1129.28 259.00 C 1129.28 302.32 1129.29 345.64 1129.27 388.96 C 1129.44 393.77 1124.79 398.36 1119.95 398.07 C 1110.62 398.10 1101.29 398.05 1091.97 398.08 C 1089.55 398.12 1086.75 397.83 1085.36 395.58 C 1072.13 377.73 1059.24 359.61 1045.87 341.87 C 1045.68 357.61 1045.86 373.34 1045.78 389.08 C 1045.88 394.04 1040.97 398.59 1036.00 398.08 C 1025.66 398.06 1015.31 398.10 1004.97 398.06 C 1000.17 398.30 995.57 393.73 995.81 388.94 C 995.79 345.62 995.80 302.30 995.80 258.99 M 1001.32 257.42 C 1001.31 301.28 1001.29 345.15 1001.33 389.01 C 1001.17 390.60 1002.76 391.45 1003.61 392.58 C 1014.70 392.52 1025.80 392.60 1036.89 392.55 C 1038.41 392.60 1039.21 391.00 1040.32 390.20 C 1040.21 368.41 1040.31 346.61 1040.27 324.81 C 1056.84 347.35 1073.35 369.93 1089.84 392.53 C 1100.41 392.59 1110.98 392.55 1121.55 392.55 C 1122.72 391.27 1124.18 389.96 1123.78 388.03 C 1123.71 344.51 1123.85 300.99 1123.71 257.47 C 1122.97 256.74 1122.24 256.00 1121.53 255.27 C 1110.09 255.10 1098.64 255.26 1087.19 255.18 C 1086.37 256.04 1085.55 256.90 1084.76 257.76 C 1084.86 278.57 1084.79 299.39 1084.79 320.20 C 1071.97 302.98 1059.42 285.56 1046.70 268.27 C 1043.31 264.03 1040.58 259.10 1036.80 255.28 C 1026.18 255.09 1015.56 255.22 1004.94 255.22 C 1003.32 255.01 1002.44 256.60 1001.32 257.42 Z" />
<path fill="#ffffff" opacity="1.00" d=" M 1133.52 259.00 C 1133.24 254.04 1137.99 249.31 1142.97 249.68 C 1178.32 249.69 1213.67 249.69 1249.01 249.68 C 1254.05 249.23 1258.90 253.96 1258.63 258.99 C 1258.64 268.67 1258.62 278.35 1258.64 288.02 C 1259.10 293.15 1254.23 298.07 1249.12 297.70 C 1239.85 297.68 1230.58 297.74 1221.31 297.66 C 1221.18 327.78 1221.28 357.91 1221.26 388.03 C 1221.89 393.13 1217.23 398.28 1212.08 398.06 C 1201.36 398.08 1190.65 398.09 1179.93 398.06 C 1175.22 398.20 1170.74 393.69 1170.92 388.98 C 1170.89 358.55 1170.92 328.12 1170.91 297.70 C 1161.60 297.69 1152.30 297.70 1143.00 297.70 C 1137.88 298.06 1133.02 293.09 1133.51 287.98 C 1133.53 278.32 1133.50 268.66 1133.52 259.00 M 1141.31 255.18 C 1140.44 256.33 1138.79 257.24 1139.04 258.91 C 1139.00 269.20 1139.03 279.49 1139.04 289.78 C 1139.78 290.56 1140.54 291.35 1141.30 292.15 C 1153.00 292.25 1164.71 292.17 1176.42 292.19 C 1176.46 324.89 1176.35 357.59 1176.47 390.29 C 1177.22 391.03 1177.97 391.77 1178.74 392.53 C 1190.33 392.60 1201.91 392.55 1213.50 392.55 C 1214.31 391.42 1215.87 390.56 1215.71 388.97 C 1215.77 356.71 1215.71 324.45 1215.74 292.19 C 1226.84 292.19 1237.94 292.20 1249.04 292.19 C 1251.22 292.47 1253.40 290.26 1253.12 288.08 C 1253.12 278.38 1253.14 268.69 1253.11 259.00 C 1253.34 257.29 1251.70 256.33 1250.80 255.17 C 1214.31 255.22 1177.81 255.19 1141.31 255.18 Z" />
<path fill="#ffffff" opacity="1.00" d=" M 1266.38 250.39 C 1268.11 249.62 1270.07 249.69 1271.95 249.67 C 1281.95 249.70 1291.95 249.68 1301.95 249.67 C 1307.05 249.08 1312.14 253.80 1311.90 258.93 C 1311.94 283.61 1311.85 308.29 1311.94 332.96 C 1311.94 339.77 1314.04 348.30 1321.25 350.78 C 1326.70 352.29 1333.57 352.08 1337.68 347.66 C 1341.17 343.66 1342.00 338.13 1342.02 332.99 C 1342.06 308.30 1342.01 283.61 1342.04 258.93 C 1341.78 254.17 1346.26 249.57 1351.02 249.70 C 1361.67 249.66 1372.33 249.71 1382.99 249.68 C 1388.07 249.10 1393.12 253.81 1392.91 258.90 C 1392.90 283.97 1392.97 309.03 1392.87 334.09 C 1392.37 351.66 1387.85 370.27 1375.09 383.09 C 1362.66 395.79 1344.31 400.45 1327.02 400.53 C 1309.66 400.58 1291.16 396.02 1278.69 383.25 C 1265.86 370.40 1261.40 351.64 1261.05 334.01 C 1261.01 308.99 1261.03 283.98 1261.04 258.96 C 1260.67 255.23 1263.46 252.26 1266.38 250.39 M 1268.98 255.17 C 1268.13 256.02 1267.30 256.88 1266.49 257.74 C 1266.71 284.49 1266.30 311.24 1266.70 337.99 C 1267.38 351.08 1270.68 364.54 1278.83 375.07 C 1288.21 387.50 1303.77 393.65 1318.94 394.71 C 1336.43 396.09 1355.64 393.25 1369.14 381.15 C 1382.36 369.41 1387.07 351.05 1387.36 333.96 C 1387.45 308.97 1387.38 283.98 1387.40 258.99 C 1387.68 257.24 1385.90 256.33 1385.00 255.15 C 1373.68 255.28 1362.35 255.13 1351.03 255.21 C 1349.39 255.05 1348.58 256.80 1347.47 257.66 C 1347.64 279.12 1347.50 300.59 1347.54 322.05 C 1347.39 329.88 1348.32 338.05 1345.34 345.51 C 1343.39 350.71 1338.96 354.94 1333.53 356.28 C 1326.58 358.00 1318.30 357.24 1313.01 351.97 C 1307.86 346.76 1306.52 339.07 1306.41 332.03 C 1306.36 307.68 1306.41 283.33 1306.39 258.99 C 1306.69 257.22 1304.88 256.32 1303.97 255.14 C 1292.31 255.25 1280.64 255.20 1268.98 255.17 Z" />
<path fill="#ffffff" opacity="1.00" d=" M 1402.47 258.94 C 1402.23 253.99 1407.01 249.30 1411.97 249.68 C 1425.64 249.69 1439.31 249.69 1452.98 249.69 C 1465.71 249.79 1478.71 248.87 1491.10 252.44 C 1507.72 256.30 1522.31 269.32 1526.54 286.06 C 1531.17 303.00 1529.06 322.72 1517.74 336.65 C 1514.61 340.66 1510.64 343.91 1506.48 346.80 C 1514.79 359.72 1523.12 372.63 1531.41 385.57 C 1533.73 388.83 1531.49 392.67 1529.58 395.52 C 1528.27 397.83 1525.37 398.10 1523.00 398.08 C 1510.35 398.05 1497.69 398.10 1485.04 398.06 C 1482.60 398.16 1480.02 397.29 1478.87 394.99 C 1471.13 382.65 1463.42 370.28 1455.70 357.93 C 1454.98 357.92 1453.54 357.92 1452.82 357.91 C 1452.79 368.31 1452.84 378.70 1452.80 389.09 C 1452.89 394.53 1447.24 399.01 1441.93 398.09 C 1431.57 398.01 1421.22 398.16 1410.87 398.03 C 1407.45 398.12 1404.95 395.34 1403.17 392.76 C 1402.15 390.31 1402.51 387.60 1402.46 385.03 C 1402.48 343.00 1402.46 300.97 1402.47 258.94 M 1410.27 255.18 C 1409.34 256.34 1407.71 257.28 1407.99 259.00 C 1407.94 302.70 1408.00 346.41 1407.96 390.12 C 1408.75 390.93 1409.55 391.75 1410.38 392.57 C 1421.56 392.53 1432.74 392.59 1443.93 392.55 C 1445.43 392.60 1446.22 390.97 1447.35 390.20 C 1447.24 377.60 1447.33 365.00 1447.31 352.40 C 1451.09 352.40 1454.89 352.40 1458.69 352.40 C 1467.07 365.77 1475.44 379.15 1483.78 392.54 C 1497.49 392.60 1511.21 392.50 1524.92 392.59 C 1525.61 391.36 1526.31 390.12 1527.05 388.90 C 1517.63 374.26 1508.21 359.62 1498.80 344.99 C 1506.00 341.14 1512.48 335.70 1516.71 328.64 C 1522.86 318.64 1524.23 306.39 1522.83 294.91 C 1521.76 285.84 1518.06 276.97 1511.66 270.36 C 1505.01 263.10 1495.72 258.74 1486.17 256.80 C 1476.92 254.78 1467.42 255.24 1458.02 255.20 C 1442.10 255.19 1426.19 255.21 1410.27 255.18 Z" />
<path fill="#ffffff" opacity="1.00" d=" M 1447.29 291.83 C 1454.17 291.79 1461.05 291.78 1467.94 291.82 C 1472.70 291.88 1478.07 292.89 1481.25 296.80 C 1486.43 303.61 1483.87 315.69 1474.91 317.82 C 1465.89 319.90 1456.48 318.36 1447.30 318.82 C 1447.30 309.83 1447.31 300.83 1447.29 291.83 M 1452.81 297.31 C 1452.81 302.65 1452.81 307.98 1452.82 313.32 C 1458.21 313.29 1463.62 313.38 1469.02 313.29 C 1471.71 313.22 1474.65 312.61 1476.61 310.60 C 1478.75 308.34 1478.53 304.85 1477.94 302.04 C 1476.86 298.73 1473.02 297.54 1469.90 297.41 C 1464.20 297.18 1458.50 297.37 1452.81 297.31 Z" />
<path fill="#ffffff" opacity="1.00" d=" M 732.12 486.99 C 731.51 481.65 736.61 476.46 741.97 477.01 C 763.33 477.05 784.69 476.97 806.06 477.05 C 818.49 477.44 831.60 480.39 841.10 488.92 C 857.75 503.26 858.08 531.89 842.46 547.11 C 849.79 551.92 855.56 559.32 857.65 567.90 C 860.57 578.23 859.77 589.51 855.55 599.36 C 850.66 610.16 840.61 617.99 829.46 621.57 C 821.56 624.06 813.30 625.40 805.01 625.40 C 783.66 625.41 762.32 625.43 740.97 625.39 C 735.77 625.43 731.37 620.11 732.12 614.99 C 732.14 572.33 732.14 529.66 732.12 486.99 M 737.64 484.96 C 737.65 528.64 737.63 572.32 737.65 616.00 C 737.30 617.78 739.08 618.74 740.02 619.94 C 756.34 619.83 772.66 619.92 788.98 619.89 C 801.60 619.77 814.56 620.79 826.74 616.73 C 837.16 613.52 846.82 606.36 851.00 596.04 C 854.85 586.48 854.90 575.35 851.21 565.73 C 847.94 557.37 840.55 551.46 832.57 547.86 C 837.99 544.28 842.79 539.49 845.40 533.45 C 850.83 520.66 849.10 504.15 838.77 494.27 C 829.95 485.49 817.02 482.59 804.94 482.55 C 783.31 482.51 761.67 482.54 740.04 482.53 C 739.23 483.33 738.43 484.14 737.64 484.96 Z" />
<path fill="#ffffff" opacity="1.00" d=" M 868.42 477.57 C 870.21 476.93 872.14 477.02 874.03 477.00 C 884.03 477.04 894.04 477.00 904.05 477.02 C 909.27 476.61 914.12 481.74 913.58 486.92 C 913.56 510.62 913.58 534.31 913.57 558.01 C 913.58 562.97 913.88 568.19 916.45 572.59 C 918.42 576.41 922.64 578.78 926.90 578.86 C 931.24 579.21 936.10 578.50 939.21 575.14 C 942.89 571.08 943.67 565.34 943.69 560.06 C 943.72 535.39 943.67 510.72 943.71 486.06 C 943.55 481.28 948.16 476.75 952.96 477.02 C 963.63 477.01 974.31 477.02 984.98 477.02 C 990.22 476.58 995.12 481.71 994.59 486.91 C 994.57 508.91 994.59 530.91 994.59 552.92 C 994.88 564.45 993.90 576.09 990.44 587.15 C 985.79 602.96 973.85 616.53 958.41 622.51 C 942.04 628.69 923.73 629.51 906.80 625.19 C 892.71 621.95 879.93 613.02 872.57 600.51 C 864.65 587.20 862.46 571.27 862.70 556.02 C 862.71 532.69 862.68 509.36 862.71 486.03 C 862.42 482.26 865.39 479.29 868.42 477.57 M 868.23 486.03 C 868.20 511.04 868.20 536.06 868.23 561.08 C 868.39 576.69 872.03 593.20 882.74 605.09 C 892.59 616.21 907.55 621.32 922.06 622.15 C 936.06 623.00 950.76 621.28 963.06 614.12 C 974.42 607.65 982.31 596.20 985.79 583.74 C 989.92 570.19 988.97 555.90 989.07 541.94 C 989.06 522.94 989.08 503.95 989.06 484.96 C 988.30 484.16 987.56 483.37 986.82 482.58 C 975.11 482.41 963.39 482.66 951.68 482.46 C 950.82 483.57 949.08 484.37 949.23 485.99 C 949.16 510.98 949.27 535.97 949.18 560.96 C 949.08 568.91 946.61 578.12 939.04 582.09 C 930.61 586.23 918.60 585.24 912.84 577.15 C 907.88 570.15 907.95 561.17 908.06 552.97 C 908.06 530.29 908.06 507.62 908.05 484.95 C 907.29 484.15 906.53 483.36 905.79 482.57 C 894.09 482.43 882.39 482.66 870.70 482.45 C 869.82 483.57 868.06 484.37 868.23 486.03 Z" />
<path fill="#ffffff" opacity="1.00" d=" M 1010.38 477.57 C 1012.17 476.92 1014.11 477.02 1016.01 477.00 C 1026.02 477.05 1036.04 476.99 1046.06 477.03 C 1051.16 476.82 1055.80 481.94 1055.21 487.00 C 1055.19 530.00 1055.20 573.00 1055.20 616.00 C 1055.57 620.93 1050.86 625.65 1045.96 625.40 C 1035.31 625.42 1024.66 625.41 1014.01 625.41 C 1009.04 625.69 1004.30 620.89 1004.67 615.91 C 1004.67 573.95 1004.69 531.98 1004.66 490.02 C 1004.73 487.45 1004.35 484.74 1005.40 482.32 C 1006.67 480.41 1008.33 478.64 1010.38 477.57 M 1010.13 484.96 C 1010.28 529.16 1010.09 573.36 1010.22 617.56 C 1010.94 618.30 1011.66 619.06 1012.40 619.82 C 1023.62 619.97 1034.84 619.88 1046.07 619.88 C 1047.65 620.08 1048.52 618.45 1049.69 617.68 C 1049.68 573.80 1049.71 529.92 1049.67 486.04 C 1049.81 484.41 1048.12 483.58 1047.27 482.47 C 1036.16 482.61 1025.06 482.47 1013.96 482.54 C 1012.20 482.23 1011.29 484.03 1010.13 484.96 Z" />
<path fill="#ffffff" opacity="1.00" d=" M 1067.12 486.92 C 1066.55 481.61 1071.63 476.44 1076.97 477.01 C 1087.34 477.03 1097.71 477.01 1108.08 477.02 C 1113.30 476.67 1118.07 481.82 1117.49 486.99 C 1117.47 517.13 1117.48 547.26 1117.49 577.40 C 1134.31 577.39 1151.14 577.41 1167.96 577.39 C 1173.19 576.83 1178.24 581.74 1177.84 586.98 C 1177.83 596.66 1177.84 606.34 1177.83 616.03 C 1178.14 621.16 1173.12 625.95 1168.01 625.42 C 1137.67 625.40 1107.33 625.40 1076.99 625.42 C 1071.87 625.97 1066.82 621.21 1067.13 616.07 C 1067.12 573.02 1067.15 529.97 1067.12 486.92 M 1072.63 484.96 C 1072.66 528.63 1072.62 572.30 1072.66 615.97 C 1072.30 617.78 1074.02 618.74 1075.03 619.93 C 1106.67 619.87 1138.31 619.86 1169.96 619.93 C 1170.89 618.73 1172.65 617.77 1172.33 616.00 C 1172.34 606.31 1172.33 596.62 1172.34 586.94 C 1172.68 585.17 1170.98 584.15 1170.10 582.92 C 1150.72 582.90 1131.35 582.92 1111.97 582.91 C 1111.99 550.26 1111.92 517.61 1112.01 484.95 C 1111.12 484.12 1110.24 483.28 1109.38 482.46 C 1097.93 482.61 1086.48 482.49 1075.04 482.53 C 1074.22 483.33 1073.42 484.15 1072.63 484.96 Z" />
<path fill="#ffffff" opacity="1.00" d=" M 1187.31 477.52 C 1195.42 476.39 1203.75 477.32 1211.95 477.02 C 1228.13 477.40 1244.62 475.65 1260.49 479.70 C 1276.82 483.23 1292.17 492.35 1302.00 505.99 C 1310.43 517.20 1314.45 531.16 1315.49 545.00 C 1316.87 566.25 1310.39 588.74 1294.89 603.86 C 1280.78 618.02 1260.65 624.49 1241.03 625.32 C 1224.34 625.53 1207.65 625.35 1190.96 625.41 C 1185.95 625.79 1181.13 621.06 1181.46 616.04 C 1181.48 572.67 1181.45 529.29 1181.48 485.92 C 1181.27 482.17 1184.27 479.20 1187.31 477.52 M 1186.98 484.96 C 1186.98 528.67 1186.95 572.38 1187.00 616.08 C 1186.71 617.78 1188.32 618.72 1189.23 619.90 C 1205.14 619.88 1221.05 619.90 1236.96 619.89 C 1246.84 619.87 1256.77 618.49 1266.12 615.23 C 1279.66 610.61 1291.81 601.61 1299.49 589.47 C 1309.39 574.07 1311.94 554.82 1309.04 536.97 C 1306.59 521.71 1298.69 507.19 1286.41 497.66 C 1272.81 486.91 1255.15 482.57 1238.06 482.54 C 1221.77 482.55 1205.48 482.46 1189.20 482.59 C 1188.45 483.38 1187.71 484.17 1186.98 484.96 Z" />
<path fill="#ffffff" opacity="1.00" d=" M 1322.46 486.98 C 1321.87 481.78 1326.73 476.62 1331.97 477.02 C 1364.32 477.02 1396.67 477.02 1429.02 477.02 C 1433.88 476.64 1438.60 481.19 1438.49 486.04 C 1438.51 495.69 1438.51 505.35 1438.49 515.01 C 1438.63 519.88 1433.94 524.46 1429.05 524.08 C 1410.18 524.09 1391.32 524.09 1372.46 524.08 C 1372.44 525.49 1372.44 526.91 1372.46 528.34 C 1389.30 528.35 1406.13 528.33 1422.97 528.34 C 1428.02 528.08 1432.76 532.95 1432.28 538.01 C 1432.25 546.66 1432.29 555.31 1432.26 563.97 C 1432.47 568.81 1427.81 573.41 1422.97 573.13 C 1406.13 573.15 1389.29 573.14 1372.46 573.13 C 1372.44 574.86 1372.44 576.60 1372.46 578.34 C 1391.65 578.34 1410.85 578.34 1430.05 578.34 C 1435.13 578.05 1439.89 583.01 1439.40 588.08 C 1439.38 597.38 1439.40 606.67 1439.40 615.97 C 1439.75 620.98 1434.94 625.77 1429.94 625.41 C 1397.28 625.41 1364.62 625.40 1331.96 625.41 C 1326.96 625.80 1322.15 621.08 1322.46 616.08 C 1322.46 573.05 1322.48 530.01 1322.46 486.98 M 1327.94 484.88 C 1328.06 529.13 1327.87 573.38 1328.04 617.63 C 1328.79 618.37 1329.55 619.11 1330.33 619.87 C 1364.10 619.88 1397.87 619.96 1431.64 619.83 C 1432.35 619.09 1433.08 618.35 1433.82 617.63 C 1433.97 607.14 1433.80 596.66 1433.91 586.17 C 1432.72 585.25 1431.75 583.58 1430.04 583.86 C 1409.01 583.83 1387.97 583.86 1366.94 583.85 C 1366.93 578.44 1366.93 573.03 1366.94 567.63 C 1386.15 567.61 1405.35 567.65 1424.56 567.60 C 1425.35 566.47 1426.89 565.60 1426.74 564.03 C 1426.81 554.77 1426.70 545.51 1426.77 536.25 C 1425.90 535.43 1425.04 534.61 1424.20 533.81 C 1405.11 533.90 1386.03 533.82 1366.94 533.85 C 1366.93 528.75 1366.93 523.66 1366.94 518.57 C 1388.16 518.56 1409.38 518.57 1430.60 518.57 C 1431.38 517.75 1432.19 516.94 1433.01 516.12 C 1433.00 505.71 1432.96 495.30 1433.03 484.90 C 1431.83 483.94 1430.87 482.20 1429.10 482.53 C 1396.71 482.53 1364.31 482.52 1331.92 482.54 C 1330.10 482.19 1329.13 483.90 1327.94 484.88 Z" />
<path fill="#ffffff" opacity="1.00" d=" M 1446.12 486.98 C 1445.51 481.64 1450.61 476.46 1455.96 477.01 C 1469.64 477.03 1483.32 477.02 1496.99 477.02 C 1509.51 477.13 1522.27 476.22 1534.46 479.69 C 1551.46 483.53 1566.38 496.95 1570.40 514.13 C 1574.81 530.97 1572.53 550.48 1561.23 564.21 C 1558.13 568.12 1554.22 571.30 1550.14 574.13 C 1558.32 586.80 1566.44 599.50 1574.63 612.16 C 1575.93 613.97 1576.63 616.40 1575.60 618.53 C 1574.27 621.41 1572.67 625.22 1568.93 625.30 C 1555.94 625.56 1542.94 625.31 1529.95 625.42 C 1527.21 625.53 1523.94 625.12 1522.58 622.40 C 1514.84 610.04 1507.09 597.68 1499.41 585.29 C 1498.41 585.26 1497.43 585.24 1496.48 585.23 C 1496.47 595.49 1496.49 605.75 1496.48 616.01 C 1496.80 621.01 1491.99 625.77 1487.00 625.41 C 1476.66 625.41 1466.32 625.40 1455.99 625.42 C 1450.83 625.97 1445.76 621.15 1446.13 615.98 C 1446.13 572.98 1446.15 529.98 1446.12 486.98 M 1451.63 484.97 C 1451.62 529.08 1451.71 573.20 1451.59 617.31 C 1452.38 618.17 1453.20 619.04 1454.04 619.91 C 1465.60 619.87 1477.16 619.90 1488.72 619.90 C 1489.59 618.73 1491.22 617.80 1490.95 616.10 C 1491.00 603.98 1490.95 591.86 1490.97 579.74 C 1494.74 579.73 1498.52 579.74 1502.31 579.71 C 1510.70 593.05 1519.11 606.38 1527.35 619.82 C 1541.13 619.98 1554.92 619.86 1568.71 619.88 C 1569.35 618.64 1570.01 617.41 1570.69 616.18 C 1561.27 601.56 1551.87 586.93 1542.46 572.31 C 1549.82 568.41 1556.39 562.80 1560.62 555.55 C 1566.63 545.52 1567.90 533.33 1566.46 521.91 C 1565.33 512.97 1561.66 504.23 1555.35 497.72 C 1548.51 490.23 1538.88 485.84 1529.04 483.98 C 1520.12 482.15 1510.98 482.57 1501.94 482.53 C 1485.97 482.53 1470.00 482.53 1454.03 482.53 C 1453.21 483.34 1452.41 484.15 1451.63 484.97 Z" />
<path fill="#ffffff" opacity="1.00" d=" M 776.08 516.87 C 783.05 516.88 790.02 516.81 797.00 516.89 C 800.71 517.03 804.92 517.57 807.58 520.47 C 811.23 524.86 809.41 532.87 803.51 534.25 C 794.56 536.44 785.20 534.93 776.08 535.38 C 776.08 529.20 776.07 523.03 776.08 516.87 M 781.59 522.38 C 781.59 524.87 781.59 527.36 781.59 529.86 C 788.12 529.60 794.76 530.47 801.22 529.26 C 805.02 528.91 804.73 522.92 800.95 522.83 C 794.56 521.87 788.03 522.60 781.59 522.38 Z" />
<path fill="#ffffff" opacity="1.00" d=" M 1490.97 519.14 C 1498.34 519.18 1505.71 519.04 1513.08 519.20 C 1518.25 519.39 1524.15 521.36 1526.35 526.48 C 1528.28 531.52 1528.01 538.07 1523.97 542.05 C 1520.79 545.10 1516.23 546.08 1511.97 546.15 C 1504.97 546.20 1497.97 546.14 1490.97 546.16 C 1490.97 537.15 1490.96 528.14 1490.97 519.14 M 1496.48 524.65 C 1496.47 529.98 1496.48 535.32 1496.48 540.66 C 1501.67 540.63 1506.86 540.69 1512.06 540.64 C 1514.90 540.64 1517.96 540.10 1520.14 538.10 C 1522.39 535.87 1522.20 532.36 1521.65 529.49 C 1520.69 526.23 1517.00 524.97 1513.95 524.77 C 1508.13 524.48 1502.30 524.72 1496.48 524.65 Z" />
<path fill="#ffffff" opacity="1.00" d=" M 1226.30 519.91 C 1235.55 520.00 1245.33 518.96 1253.95 523.11 C 1261.93 526.63 1267.60 534.38 1269.15 542.90 C 1270.68 551.28 1270.19 560.39 1266.15 568.03 C 1262.85 574.27 1256.83 578.82 1250.11 580.81 C 1242.42 583.29 1234.26 582.32 1226.33 582.55 C 1226.26 561.67 1226.33 540.79 1226.30 519.91 M 1231.80 525.43 C 1231.83 542.63 1231.80 559.82 1231.82 577.02 C 1238.88 577.06 1246.42 577.43 1252.78 573.79 C 1261.11 569.69 1264.90 559.92 1264.43 551.04 C 1264.81 542.39 1261.05 533.00 1253.09 528.84 C 1246.66 525.04 1238.99 525.31 1231.80 525.43 Z" />
<path fill="#ffffff" opacity="1.00" d=" M 776.08 565.91 C 784.07 565.92 792.07 565.90 800.07 565.91 C 803.93 565.99 808.10 566.35 811.35 568.68 C 815.01 571.26 815.38 576.75 813.40 580.49 C 811.01 584.32 806.11 585.31 801.92 585.52 C 793.31 585.65 784.70 585.52 776.09 585.58 C 776.06 579.02 776.08 572.47 776.08 565.91 M 781.59 571.43 C 781.59 574.30 781.59 577.17 781.60 580.05 C 788.76 579.97 795.93 580.21 803.09 579.94 C 805.38 579.73 809.11 579.04 809.05 576.05 C 809.72 573.02 806.25 571.90 803.92 571.64 C 796.49 571.17 789.03 571.54 781.59 571.43 Z" />
</g>
<g id="#333333ff">
<path fill="#333333" opacity="1.00" d=" M 737.65 31.87 C 737.27 30.05 738.99 29.05 739.98 27.84 C 753.32 27.90 766.66 27.85 780.00 27.86 C 790.66 27.94 801.52 27.24 811.92 30.07 C 824.04 33.05 835.38 40.48 841.49 51.55 C 848.61 64.44 849.27 80.32 845.14 94.27 C 841.11 107.76 830.04 118.45 816.89 123.12 C 804.20 128.11 790.37 127.39 777.01 127.35 C 776.94 139.20 776.95 151.05 777.00 162.90 C 775.79 163.85 774.80 165.57 773.01 165.22 C 762.02 165.25 751.03 165.21 740.05 165.22 C 739.24 164.43 738.44 163.64 737.65 162.86 C 737.63 119.20 737.64 75.53 737.65 31.87 M 776.97 63.53 C 776.97 73.61 776.95 83.70 776.98 93.78 C 785.10 93.25 793.92 95.33 801.44 91.37 C 811.30 86.18 810.65 68.82 799.89 65.05 C 792.55 62.43 784.59 63.92 776.97 63.53 Z" />
<path fill="#333333" opacity="1.00" d=" M 862.29 30.26 C 863.13 29.45 863.98 28.63 864.85 27.82 C 879.90 27.91 894.96 27.84 910.02 27.86 C 921.73 27.93 933.71 27.19 945.07 30.60 C 956.69 33.75 967.15 41.57 972.64 52.39 C 978.24 63.68 978.85 77.04 976.08 89.19 C 973.20 101.55 964.34 111.95 953.12 117.65 C 962.55 132.31 972.02 146.94 981.39 161.64 C 980.65 162.84 979.95 164.05 979.24 165.26 C 965.53 165.17 951.83 165.27 938.13 165.21 C 929.77 151.82 921.40 138.44 913.03 125.07 C 909.23 125.07 905.43 125.07 901.64 125.07 C 901.66 137.61 901.58 150.16 901.68 162.70 C 900.83 163.55 899.99 164.41 899.17 165.26 C 887.71 165.20 876.25 165.21 864.80 165.25 C 863.94 164.43 863.11 163.60 862.29 162.77 C 862.33 118.60 862.31 74.43 862.29 30.26 M 901.63 64.48 C 901.64 73.49 901.63 82.49 901.64 91.49 C 910.91 91.02 920.44 92.59 929.54 90.40 C 938.32 88.07 940.68 76.14 935.56 69.42 C 932.54 65.75 927.55 64.65 923.02 64.50 C 915.89 64.42 908.76 64.49 901.63 64.48 Z" />
<path fill="#333333" opacity="1.00" d=" M 995.85 31.93 C 995.56 29.73 997.79 27.58 999.98 27.86 C 1011.00 27.84 1022.02 27.90 1033.04 27.84 C 1034.01 29.06 1035.71 30.06 1035.35 31.88 C 1035.34 75.56 1035.40 119.25 1035.32 162.94 C 1034.52 163.69 1033.73 164.45 1032.96 165.21 C 1021.94 165.24 1010.92 165.22 999.91 165.23 C 998.13 165.59 997.09 163.90 995.85 163.02 C 995.85 119.32 995.84 75.63 995.85 31.93 Z" />
<path fill="#333333" opacity="1.00" d=" M 1058.11 30.18 C 1059.27 29.29 1060.22 27.63 1061.94 27.88 C 1074.05 27.80 1086.17 27.96 1098.28 27.80 C 1107.89 44.05 1117.25 60.44 1126.72 76.77 C 1136.28 60.53 1145.63 44.15 1155.12 27.86 C 1167.76 27.85 1180.40 27.90 1193.04 27.84 C 1194.04 29.06 1195.75 30.08 1195.38 31.94 C 1195.38 75.59 1195.40 119.24 1195.36 162.89 C 1194.55 163.67 1193.75 164.44 1192.97 165.22 C 1181.57 165.26 1170.17 165.16 1158.78 165.27 C 1157.90 164.45 1157.05 163.63 1156.21 162.81 C 1156.24 140.50 1156.26 118.18 1156.20 95.87 C 1151.86 101.44 1148.70 107.87 1144.81 113.77 C 1139.23 122.85 1133.68 131.94 1128.07 141.00 C 1127.25 141.01 1125.61 141.03 1124.79 141.04 C 1115.38 125.96 1106.20 110.75 1096.79 95.67 C 1096.73 118.04 1096.73 140.41 1096.79 162.78 C 1095.92 163.61 1095.05 164.44 1094.21 165.28 C 1083.05 165.19 1071.89 165.19 1060.73 165.28 C 1059.84 164.47 1058.98 163.66 1058.13 162.85 C 1058.14 118.63 1058.17 74.41 1058.11 30.18 Z" />
<path fill="#333333" opacity="1.00" d=" M 1217.44 30.37 C 1218.24 29.53 1219.06 28.69 1219.90 27.85 C 1253.28 27.88 1286.67 27.85 1320.05 27.86 C 1320.84 28.64 1321.65 29.41 1322.48 30.19 C 1322.56 40.58 1322.42 50.98 1322.55 61.37 C 1321.70 62.23 1320.87 63.08 1320.05 63.94 C 1298.83 63.93 1277.61 63.77 1256.40 64.02 C 1256.49 69.09 1256.36 74.15 1256.52 79.22 C 1275.63 79.12 1294.74 79.23 1313.86 79.17 C 1314.66 80.02 1315.46 80.87 1316.30 81.73 C 1316.17 91.39 1316.34 101.06 1316.20 110.72 C 1315.39 111.46 1314.60 112.21 1313.83 112.95 C 1294.69 113.01 1275.55 112.85 1256.41 113.03 C 1256.48 118.43 1256.37 123.82 1256.50 129.21 C 1277.98 129.13 1299.47 129.23 1320.95 129.16 C 1321.77 129.99 1322.58 130.83 1323.42 131.68 C 1323.33 142.08 1323.42 152.48 1323.37 162.88 C 1322.55 163.66 1321.75 164.44 1320.97 165.22 C 1287.27 165.24 1253.58 165.21 1219.88 165.24 C 1219.04 164.40 1218.24 163.55 1217.44 162.71 C 1217.50 118.60 1217.50 74.48 1217.44 30.37 Z" />
<path fill="#333333" opacity="1.00" d=" M 1675.53 264.58 C 1686.09 255.64 1700.41 252.49 1713.98 252.96 C 1732.73 253.21 1752.03 259.43 1765.67 272.61 C 1759.67 281.90 1753.46 291.05 1747.32 300.25 C 1746.19 300.42 1745.09 300.60 1744.00 300.79 C 1735.20 294.35 1724.98 289.39 1714.02 288.36 C 1710.28 288.08 1706.23 287.95 1702.93 289.96 C 1699.62 291.80 1699.49 297.24 1702.71 299.24 C 1705.50 301.17 1708.81 302.14 1712.04 303.13 C 1727.56 307.33 1744.47 310.18 1756.94 321.15 C 1762.69 326.22 1766.55 333.33 1767.77 340.90 C 1769.89 353.91 1767.18 368.22 1758.34 378.32 C 1749.59 388.47 1736.20 393.38 1723.12 394.50 C 1698.18 396.63 1671.88 388.67 1654.03 370.72 C 1660.87 362.00 1667.75 353.30 1674.58 344.58 C 1675.70 344.45 1676.85 344.33 1678.02 344.22 C 1689.77 354.25 1705.22 360.90 1720.88 359.29 C 1724.30 358.93 1728.77 357.11 1728.77 353.04 C 1729.24 350.02 1726.63 347.92 1724.20 346.82 C 1717.17 343.55 1709.46 342.27 1702.05 340.19 C 1692.92 337.66 1683.72 334.63 1675.90 329.15 C 1669.89 324.98 1665.09 318.98 1662.83 311.99 C 1657.64 295.57 1661.91 275.73 1675.53 264.58 Z" />
<path fill="#333333" opacity="1.00" d=" M 730.17 255.18 C 743.60 255.23 757.03 255.15 770.46 255.23 C 779.28 281.45 788.06 307.70 797.03 333.88 C 805.89 307.67 814.75 281.46 823.56 255.23 C 836.87 255.21 850.18 255.11 863.49 255.28 C 864.08 256.76 866.05 258.23 864.90 259.96 C 848.04 304.47 831.18 348.99 814.33 393.51 C 802.58 393.55 790.83 393.45 779.08 393.56 C 764.30 355.07 749.85 316.45 735.20 277.91 C 732.78 271.34 730.10 264.86 727.87 258.23 C 728.62 257.20 729.39 256.19 730.17 255.18 Z" />
<path fill="#333333" opacity="1.00" d=" M 880.18 255.15 C 913.17 255.27 946.16 255.14 979.15 255.22 C 981.05 255.08 982.93 257.01 982.82 258.90 C 982.89 268.89 982.76 278.88 982.87 288.88 C 981.68 289.77 980.74 291.51 979.02 291.23 C 958.27 291.25 937.53 291.23 916.78 291.23 C 916.76 296.32 916.78 301.40 916.76 306.49 C 935.89 306.55 955.01 306.50 974.13 306.51 C 974.93 307.27 975.73 308.02 976.55 308.79 C 976.66 318.44 976.51 328.10 976.63 337.76 C 975.80 338.61 974.97 339.46 974.16 340.31 C 955.78 340.25 937.40 340.32 919.03 340.27 C 918.48 340.38 917.39 340.59 916.84 340.69 C 916.63 345.94 916.87 351.20 916.74 356.45 C 938.27 356.57 959.79 356.54 981.32 356.47 C 982.16 357.56 983.81 358.39 983.70 359.99 C 983.73 369.67 983.73 379.36 983.70 389.04 C 983.83 390.60 982.25 391.44 981.47 392.56 C 947.73 392.58 913.99 392.53 880.26 392.58 C 879.42 391.75 878.59 390.91 877.78 390.08 C 877.85 346.37 877.78 302.65 877.82 258.94 C 877.57 257.24 879.28 256.32 880.18 255.15 Z" />
<path fill="#333333" opacity="1.00" d=" M 1001.32 257.42 C 1002.44 256.60 1003.32 255.01 1004.94 255.22 C 1015.56 255.22 1026.18 255.09 1036.80 255.28 C 1040.58 259.10 1043.31 264.03 1046.70 268.27 C 1059.42 285.56 1071.97 302.98 1084.79 320.20 C 1084.79 299.39 1084.86 278.57 1084.76 257.76 C 1085.55 256.90 1086.37 256.04 1087.19 255.18 C 1098.64 255.26 1110.09 255.10 1121.53 255.27 C 1122.24 256.00 1122.97 256.74 1123.71 257.47 C 1123.85 300.99 1123.71 344.51 1123.78 388.03 C 1124.18 389.96 1122.72 391.27 1121.55 392.55 C 1110.98 392.55 1100.41 392.59 1089.84 392.53 C 1073.35 369.93 1056.84 347.35 1040.27 324.81 C 1040.31 346.61 1040.21 368.41 1040.32 390.20 C 1039.21 391.00 1038.41 392.60 1036.89 392.55 C 1025.80 392.60 1014.70 392.52 1003.61 392.58 C 1002.76 391.45 1001.17 390.60 1001.33 389.01 C 1001.29 345.15 1001.31 301.28 1001.32 257.42 Z" />
<path fill="#333333" opacity="1.00" d=" M 1141.31 255.18 C 1177.81 255.19 1214.31 255.22 1250.80 255.17 C 1251.70 256.33 1253.34 257.29 1253.11 259.00 C 1253.14 268.69 1253.12 278.38 1253.12 288.08 C 1253.40 290.26 1251.22 292.47 1249.04 292.19 C 1237.94 292.20 1226.84 292.19 1215.74 292.19 C 1215.71 324.45 1215.77 356.71 1215.71 388.97 C 1215.87 390.56 1214.31 391.42 1213.50 392.55 C 1201.91 392.55 1190.33 392.60 1178.74 392.53 C 1177.97 391.77 1177.22 391.03 1176.47 390.29 C 1176.35 357.59 1176.46 324.89 1176.42 292.19 C 1164.71 292.17 1153.00 292.25 1141.30 292.15 C 1140.54 291.35 1139.78 290.56 1139.04 289.78 C 1139.03 279.49 1139.00 269.20 1139.04 258.91 C 1138.79 257.24 1140.44 256.33 1141.31 255.18 Z" />
<path fill="#333333" opacity="1.00" d=" M 1268.98 255.17 C 1280.64 255.20 1292.31 255.25 1303.97 255.14 C 1304.88 256.32 1306.69 257.22 1306.39 258.99 C 1306.41 283.33 1306.36 307.68 1306.41 332.03 C 1306.52 339.07 1307.86 346.76 1313.01 351.97 C 1318.30 357.24 1326.58 358.00 1333.53 356.28 C 1338.96 354.94 1343.39 350.71 1345.34 345.51 C 1348.32 338.05 1347.39 329.88 1347.54 322.05 C 1347.50 300.59 1347.64 279.12 1347.47 257.66 C 1348.58 256.80 1349.39 255.05 1351.03 255.21 C 1362.35 255.13 1373.68 255.28 1385.00 255.15 C 1385.90 256.33 1387.68 257.24 1387.40 258.99 C 1387.38 283.98 1387.45 308.97 1387.36 333.96 C 1387.07 351.05 1382.36 369.41 1369.14 381.15 C 1355.64 393.25 1336.43 396.09 1318.94 394.71 C 1303.77 393.65 1288.21 387.50 1278.83 375.07 C 1270.68 364.54 1267.38 351.08 1266.70 337.99 C 1266.30 311.24 1266.71 284.49 1266.49 257.74 C 1267.30 256.88 1268.13 256.02 1268.98 255.17 Z" />
<path fill="#333333" opacity="1.00" d=" M 1410.27 255.18 C 1426.19 255.21 1442.10 255.19 1458.02 255.20 C 1467.42 255.24 1476.92 254.78 1486.17 256.80 C 1495.72 258.74 1505.01 263.10 1511.66 270.36 C 1518.06 276.97 1521.76 285.84 1522.83 294.91 C 1524.23 306.39 1522.86 318.64 1516.71 328.64 C 1512.48 335.70 1506.00 341.14 1498.80 344.99 C 1508.21 359.62 1517.63 374.26 1527.05 388.90 C 1526.31 390.12 1525.61 391.36 1524.92 392.59 C 1511.21 392.50 1497.49 392.60 1483.78 392.54 C 1475.44 379.15 1467.07 365.77 1458.69 352.40 C 1454.89 352.40 1451.09 352.40 1447.31 352.40 C 1447.33 365.00 1447.24 377.60 1447.35 390.20 C 1446.22 390.97 1445.43 392.60 1443.93 392.55 C 1432.74 392.59 1421.56 392.53 1410.38 392.57 C 1409.55 391.75 1408.75 390.93 1407.96 390.12 C 1408.00 346.41 1407.94 302.70 1407.99 259.00 C 1407.71 257.28 1409.34 256.34 1410.27 255.18 M 1447.29 291.83 C 1447.31 300.83 1447.30 309.83 1447.30 318.82 C 1456.48 318.36 1465.89 319.90 1474.91 317.82 C 1483.87 315.69 1486.43 303.61 1481.25 296.80 C 1478.07 292.89 1472.70 291.88 1467.94 291.82 C 1461.05 291.78 1454.17 291.79 1447.29 291.83 Z" />
<path fill="#333333" opacity="1.00" d=" M 1543.17 255.15 C 1576.64 255.30 1610.11 255.08 1643.57 255.26 C 1644.28 256.00 1645.01 256.73 1645.77 257.46 C 1645.92 267.92 1645.77 278.37 1645.85 288.83 C 1644.97 289.65 1644.11 290.46 1643.27 291.28 C 1622.11 291.18 1600.94 291.27 1579.78 291.23 C 1579.76 296.31 1579.79 301.38 1579.75 306.46 C 1598.91 306.56 1618.07 306.53 1637.22 306.48 C 1638.07 307.60 1639.74 308.45 1639.57 310.09 C 1639.66 319.31 1639.51 328.54 1639.63 337.76 C 1638.80 338.61 1637.98 339.46 1637.18 340.31 C 1618.05 340.27 1598.91 340.30 1579.78 340.29 C 1579.75 345.68 1579.79 351.07 1579.75 356.47 C 1601.27 356.55 1622.80 356.55 1644.33 356.47 C 1645.14 357.56 1646.79 358.39 1646.70 359.96 C 1646.73 369.61 1646.73 379.27 1646.70 388.93 C 1646.86 390.52 1645.33 391.40 1644.52 392.54 C 1610.78 392.61 1577.04 392.50 1543.30 392.59 C 1542.44 391.77 1541.60 390.95 1540.79 390.14 C 1540.83 346.39 1540.78 302.64 1540.82 258.90 C 1540.57 257.22 1542.30 256.32 1543.17 255.15 Z" />
<path fill="#333333" opacity="1.00" d=" M 737.64 484.96 C 738.43 484.14 739.23 483.33 740.04 482.53 C 761.67 482.54 783.31 482.51 804.94 482.55 C 817.02 482.59 829.95 485.49 838.77 494.27 C 849.10 504.15 850.83 520.66 845.40 533.45 C 842.79 539.49 837.99 544.28 832.57 547.86 C 840.55 551.46 847.94 557.37 851.21 565.73 C 854.90 575.35 854.85 586.48 851.00 596.04 C 846.82 606.36 837.16 613.52 826.74 616.73 C 814.56 620.79 801.60 619.77 788.98 619.89 C 772.66 619.92 756.34 619.83 740.02 619.94 C 739.08 618.74 737.30 617.78 737.65 616.00 C 737.63 572.32 737.65 528.64 737.64 484.96 M 776.08 516.87 C 776.07 523.03 776.08 529.20 776.08 535.38 C 785.20 534.93 794.56 536.44 803.51 534.25 C 809.41 532.87 811.23 524.86 807.58 520.47 C 804.92 517.57 800.71 517.03 797.00 516.89 C 790.02 516.81 783.05 516.88 776.08 516.87 M 776.08 565.91 C 776.08 572.47 776.06 579.02 776.09 585.58 C 784.70 585.52 793.31 585.65 801.92 585.52 C 806.11 585.31 811.01 584.32 813.40 580.49 C 815.38 576.75 815.01 571.26 811.35 568.68 C 808.10 566.35 803.93 565.99 800.07 565.91 C 792.07 565.90 784.07 565.92 776.08 565.91 Z" />
<path fill="#333333" opacity="1.00" d=" M 868.23 486.03 C 868.06 484.37 869.82 483.57 870.70 482.45 C 882.39 482.66 894.09 482.43 905.79 482.57 C 906.53 483.36 907.29 484.15 908.05 484.95 C 908.06 507.62 908.06 530.29 908.06 552.97 C 907.95 561.17 907.88 570.15 912.84 577.15 C 918.60 585.24 930.61 586.23 939.04 582.09 C 946.61 578.12 949.08 568.91 949.18 560.96 C 949.27 535.97 949.16 510.98 949.23 485.99 C 949.08 484.37 950.82 483.57 951.68 482.46 C 963.39 482.66 975.11 482.41 986.82 482.58 C 987.56 483.37 988.30 484.16 989.06 484.96 C 989.08 503.95 989.06 522.94 989.07 541.94 C 988.97 555.90 989.92 570.19 985.79 583.74 C 982.31 596.20 974.42 607.65 963.06 614.12 C 950.76 621.28 936.06 623.00 922.06 622.15 C 907.55 621.32 892.59 616.21 882.74 605.09 C 872.03 593.20 868.39 576.69 868.23 561.08 C 868.20 536.06 868.20 511.04 868.23 486.03 Z" />
<path fill="#333333" opacity="1.00" d=" M 1010.13 484.96 C 1011.29 484.03 1012.20 482.23 1013.96 482.54 C 1025.06 482.47 1036.16 482.61 1047.27 482.47 C 1048.12 483.58 1049.81 484.41 1049.67 486.04 C 1049.71 529.92 1049.68 573.80 1049.69 617.68 C 1048.52 618.45 1047.65 620.08 1046.07 619.88 C 1034.84 619.88 1023.62 619.97 1012.40 619.82 C 1011.66 619.06 1010.94 618.30 1010.22 617.56 C 1010.09 573.36 1010.28 529.16 1010.13 484.96 Z" />
<path fill="#333333" opacity="1.00" d=" M 1072.63 484.96 C 1073.42 484.15 1074.22 483.33 1075.04 482.53 C 1086.48 482.49 1097.93 482.61 1109.38 482.46 C 1110.24 483.28 1111.12 484.12 1112.01 484.95 C 1111.92 517.61 1111.99 550.26 1111.97 582.91 C 1131.35 582.92 1150.72 582.90 1170.10 582.92 C 1170.98 584.15 1172.68 585.17 1172.34 586.94 C 1172.33 596.62 1172.34 606.31 1172.33 616.00 C 1172.65 617.77 1170.89 618.73 1169.96 619.93 C 1138.31 619.86 1106.67 619.87 1075.03 619.93 C 1074.02 618.74 1072.30 617.78 1072.66 615.97 C 1072.62 572.30 1072.66 528.63 1072.63 484.96 Z" />
<path fill="#333333" opacity="1.00" d=" M 1186.98 484.96 C 1187.71 484.17 1188.45 483.38 1189.20 482.59 C 1205.48 482.46 1221.77 482.55 1238.06 482.54 C 1255.15 482.57 1272.81 486.91 1286.41 497.66 C 1298.69 507.19 1306.59 521.71 1309.04 536.97 C 1311.94 554.82 1309.39 574.07 1299.49 589.47 C 1291.81 601.61 1279.66 610.61 1266.12 615.23 C 1256.77 618.49 1246.84 619.87 1236.96 619.89 C 1221.05 619.90 1205.14 619.88 1189.23 619.90 C 1188.32 618.72 1186.71 617.78 1187.00 616.08 C 1186.95 572.38 1186.98 528.67 1186.98 484.96 M 1226.30 519.91 C 1226.33 540.79 1226.26 561.67 1226.33 582.55 C 1234.26 582.32 1242.42 583.29 1250.11 580.81 C 1256.83 578.82 1262.85 574.27 1266.15 568.03 C 1270.19 560.39 1270.68 551.28 1269.15 542.90 C 1267.60 534.38 1261.93 526.63 1253.95 523.11 C 1245.33 518.96 1235.55 520.00 1226.30 519.91 Z" />
<path fill="#333333" opacity="1.00" d=" M 1327.94 484.88 C 1329.13 483.90 1330.10 482.19 1331.92 482.54 C 1364.31 482.52 1396.71 482.53 1429.10 482.53 C 1430.87 482.20 1431.83 483.94 1433.03 484.90 C 1432.96 495.30 1433.00 505.71 1433.01 516.12 C 1432.19 516.94 1431.38 517.75 1430.60 518.57 C 1409.38 518.57 1388.16 518.56 1366.94 518.57 C 1366.93 523.66 1366.93 528.75 1366.94 533.85 C 1386.03 533.82 1405.11 533.90 1424.20 533.81 C 1425.04 534.61 1425.90 535.43 1426.77 536.25 C 1426.70 545.51 1426.81 554.77 1426.74 564.03 C 1426.89 565.60 1425.35 566.47 1424.56 567.60 C 1405.35 567.65 1386.15 567.61 1366.94 567.63 C 1366.93 573.03 1366.93 578.44 1366.94 583.85 C 1387.97 583.86 1409.01 583.83 1430.04 583.86 C 1431.75 583.58 1432.72 585.25 1433.91 586.17 C 1433.80 596.66 1433.97 607.14 1433.82 617.63 C 1433.08 618.35 1432.35 619.09 1431.64 619.83 C 1397.87 619.96 1364.10 619.88 1330.33 619.87 C 1329.55 619.11 1328.79 618.37 1328.04 617.63 C 1327.87 573.38 1328.06 529.13 1327.94 484.88 Z" />
<path fill="#333333" opacity="1.00" d=" M 1451.63 484.97 C 1452.41 484.15 1453.21 483.34 1454.03 482.53 C 1470.00 482.53 1485.97 482.53 1501.94 482.53 C 1510.98 482.57 1520.12 482.15 1529.04 483.98 C 1538.88 485.84 1548.51 490.23 1555.35 497.72 C 1561.66 504.23 1565.33 512.97 1566.46 521.91 C 1567.90 533.33 1566.63 545.52 1560.62 555.55 C 1556.39 562.80 1549.82 568.41 1542.46 572.31 C 1551.87 586.93 1561.27 601.56 1570.69 616.18 C 1570.01 617.41 1569.35 618.64 1568.71 619.88 C 1554.92 619.86 1541.13 619.98 1527.35 619.82 C 1519.11 606.38 1510.70 593.05 1502.31 579.71 C 1498.52 579.74 1494.74 579.73 1490.97 579.74 C 1490.95 591.86 1491.00 603.98 1490.95 616.10 C 1491.22 617.80 1489.59 618.73 1488.72 619.90 C 1477.16 619.90 1465.60 619.87 1454.04 619.91 C 1453.20 619.04 1452.38 618.17 1451.59 617.31 C 1451.71 573.20 1451.62 529.08 1451.63 484.97 M 1490.97 519.14 C 1490.96 528.14 1490.97 537.15 1490.97 546.16 C 1497.97 546.14 1504.97 546.20 1511.97 546.15 C 1516.23 546.08 1520.79 545.10 1523.97 542.05 C 1528.01 538.07 1528.28 531.52 1526.35 526.48 C 1524.15 521.36 1518.25 519.39 1513.08 519.20 C 1505.71 519.04 1498.34 519.18 1490.97 519.14 Z" />
</g>
<g id="#78d1b7ff">
<path fill="#78d1b7" opacity="1.00" d=" M 251.82 101.09 C 255.65 93.99 260.02 87.15 264.03 80.14 C 267.07 82.85 270.56 84.95 274.16 86.82 C 331.83 119.93 389.47 153.10 447.15 186.18 C 443.13 193.02 439.08 199.85 435.06 206.70 C 431.68 205.34 428.48 203.61 425.43 201.62 C 367.64 168.27 309.64 135.30 251.91 101.85 L 251.82 101.09 Z" />
</g>
<g id="#72c5b6ff">
<path fill="#72c5b6" opacity="1.00" d=" M 251.28 101.89 L 251.91 101.85 C 309.64 135.30 367.64 168.27 425.43 201.62 C 428.48 203.61 431.68 205.34 435.06 206.70 C 427.47 219.57 419.87 232.43 412.29 245.30 C 359.14 214.98 306.14 184.37 253.03 153.95 C 245.27 148.74 236.23 145.44 229.11 139.33 C 236.56 126.89 243.77 114.29 251.28 101.89 Z" />
</g>
<g id="#69b6b6ff">
<path fill="#69b6b6" opacity="1.00" d=" M 204.23 181.56 C 212.53 167.49 220.83 153.42 229.11 139.33 C 236.23 145.44 245.27 148.74 253.03 153.95 C 306.14 184.37 359.14 214.98 412.29 245.30 C 404.23 259.01 396.12 272.69 388.06 286.40 C 381.01 283.20 374.58 278.88 367.88 275.06 C 320.80 248.23 273.92 221.06 226.86 194.19 C 219.36 189.90 212.12 185.11 204.23 181.56 Z" />
</g>
<g id="#62a8b5ff">
<path fill="#62a8b5" opacity="1.00" d=" M 204.23 181.56 C 212.12 185.11 219.36 189.90 226.86 194.19 C 273.92 221.06 320.80 248.23 367.88 275.06 C 374.58 278.88 381.01 283.20 388.06 286.40 C 380.00 300.09 371.89 313.76 363.85 327.46 C 355.23 323.70 347.35 318.48 339.19 313.83 C 291.49 286.57 243.93 259.08 196.22 231.82 C 190.96 228.51 185.27 225.88 180.34 222.06 C 188.32 208.57 196.26 195.05 204.23 181.56 Z" />
</g>
<g id="#5b9cb5ff">
<path fill="#5b9cb5" opacity="1.00" d=" M 156.58 262.25 C 164.61 248.91 172.40 235.44 180.34 222.06 C 185.27 225.88 190.96 228.51 196.22 231.82 C 243.93 259.08 291.49 286.57 339.19 313.83 C 347.35 318.48 355.23 323.70 363.85 327.46 C 355.95 340.84 348.05 354.22 340.16 367.61 C 278.93 332.65 217.82 297.48 156.71 262.32 L 156.58 262.25 Z" />
</g>
<g id="#5692b4ff">
<path fill="#5692b4" opacity="1.00" d=" M 134.21 300.25 C 141.78 287.65 149.04 274.86 156.71 262.32 C 217.82 297.48 278.93 332.65 340.16 367.61 C 332.55 380.54 324.91 393.46 317.29 406.39 C 259.67 373.53 202.27 340.29 144.66 307.39 C 140.96 305.35 137.06 303.48 134.21 300.25 Z" />
</g>
<g id="#4675b3ff">
<path fill="#4675b3" opacity="1.00" d=" M 441.90 290.83 C 462.73 273.01 490.64 263.73 518.00 265.85 C 550.36 267.96 581.22 285.92 598.85 313.16 C 605.13 323.24 611.14 333.49 617.30 343.64 C 559.16 377.70 501.16 411.98 443.03 446.06 C 440.34 447.69 437.65 449.35 434.98 451.02 C 429.70 442.27 424.42 433.52 419.17 424.76 C 407.58 405.10 402.68 381.62 405.44 358.97 C 408.46 332.75 421.71 307.85 441.90 290.83 Z" />
<path fill="#4675b3" opacity="1.00" d=" M 56.16 432.63 C 59.52 433.77 62.71 435.32 65.70 437.23 C 121.61 469.33 177.53 501.40 233.39 533.58 C 235.82 535.00 238.38 536.18 240.96 537.32 C 236.00 548.02 231.89 559.25 230.23 570.99 C 228.59 582.34 229.53 594.53 235.42 604.60 C 242.22 616.49 254.85 623.63 267.63 627.43 C 279.23 631.20 291.46 631.78 303.48 633.20 C 244.98 633.56 186.46 633.15 127.96 633.41 C 93.19 635.27 58.13 618.58 37.69 590.39 C 18.21 564.16 12.00 528.69 21.54 497.43 C 24.53 487.03 29.52 477.37 35.19 468.20 C 42.18 456.34 49.18 444.49 56.16 432.63 Z" />
</g>
<g id="#5086b4ff">
<path fill="#5086b4" opacity="1.00" d=" M 94.53 367.57 C 107.77 345.14 121.01 322.71 134.21 300.25 C 137.06 303.48 140.96 305.35 144.66 307.39 C 202.27 340.29 259.67 373.53 317.29 406.39 C 314.27 411.54 311.22 416.67 308.21 421.82 C 298.14 438.91 288.02 455.97 277.97 473.06 C 222.16 441.25 166.53 409.10 110.79 377.17 C 105.37 373.97 99.74 371.12 94.53 367.57 Z" />
</g>
<g id="#4d80b3ff">
<path fill="#4d80b3" opacity="1.00" d=" M 443.03 446.06 C 501.16 411.98 559.16 377.70 617.30 343.64 C 627.88 361.24 638.50 378.81 649.08 396.40 C 640.60 400.13 633.05 405.55 624.97 410.02 C 582.78 434.81 540.61 459.63 498.43 484.44 C 487.88 490.91 476.92 496.71 466.57 503.49 C 456.03 486.00 445.51 468.50 434.98 451.02 C 437.65 449.35 440.34 447.69 443.03 446.06 Z" />
</g>
<g id="#4a7cb3ff">
<path fill="#4a7cb3" opacity="1.00" d=" M 56.16 432.63 C 68.97 410.95 81.74 389.26 94.53 367.57 C 99.74 371.12 105.37 373.97 110.79 377.17 C 166.53 409.10 222.16 441.25 277.97 473.06 C 268.19 489.87 258.09 506.48 248.46 523.37 C 245.74 527.89 243.21 532.53 240.96 537.32 C 238.38 536.18 235.82 535.00 233.39 533.58 C 177.53 501.40 121.61 469.33 65.70 437.23 C 62.71 435.32 59.52 433.77 56.16 432.63 Z" />
</g>
<g id="#548eb4ff">
<path fill="#548eb4" opacity="1.00" d=" M 624.97 410.02 C 633.05 405.55 640.60 400.13 649.08 396.40 C 656.33 408.46 663.60 420.51 670.86 432.57 C 662.86 436.39 655.33 441.13 647.73 445.69 C 594.48 476.79 541.49 508.35 488.18 539.36 C 480.96 527.41 473.79 515.43 466.57 503.49 C 476.92 496.71 487.88 490.91 498.43 484.44 C 540.61 459.63 582.78 434.81 624.97 410.02 Z" />
</g>
<g id="#3f3f69ff">
<path fill="#3f3f69" opacity="1.00" d=" M 308.21 421.82 C 331.80 420.63 355.80 427.12 375.13 440.80 C 402.69 459.80 420.16 492.49 420.35 526.00 C 421.12 559.05 405.10 591.83 378.71 611.70 C 361.12 625.21 339.17 632.89 316.99 633.33 C 312.49 633.32 307.97 633.61 303.48 633.20 C 291.46 631.78 279.23 631.20 267.63 627.43 C 254.85 623.63 242.22 616.49 235.42 604.60 C 229.53 594.53 228.59 582.34 230.23 570.99 C 231.89 559.25 236.00 548.02 240.96 537.32 C 243.21 532.53 245.74 527.89 248.46 523.37 C 258.09 506.48 268.19 489.87 277.97 473.06 C 288.02 455.97 298.14 438.91 308.21 421.82 Z" />
</g>
<g id="#5c9cb5ff">
<path fill="#5c9cb5" opacity="1.00" d=" M 647.73 445.69 C 655.33 441.13 662.86 436.39 670.86 432.57 C 677.92 444.34 685.04 456.09 692.11 467.86 C 684.78 471.36 678.13 476.05 671.04 479.98 C 631.35 503.29 591.69 526.65 552.02 550.00 C 537.79 558.15 523.89 566.88 509.53 574.80 C 502.39 563.00 495.30 551.17 488.18 539.36 C 541.49 508.35 594.48 476.79 647.73 445.69 Z" />
</g>
<g id="#64acb5ff">
<path fill="#64acb5" opacity="1.00" d=" M 671.04 479.98 C 678.13 476.05 684.78 471.36 692.11 467.86 C 698.18 477.40 703.31 487.60 706.38 498.52 C 699.37 501.44 693.32 506.12 686.63 509.64 C 634.18 540.42 581.77 571.25 529.37 602.09 C 521.32 594.12 515.15 584.56 509.53 574.80 C 523.89 566.88 537.79 558.15 552.02 550.00 C 591.69 526.65 631.35 503.29 671.04 479.98 Z" />
</g>
<g id="#6ebdb6ff">
<path fill="#6ebdb6" opacity="1.00" d=" M 686.63 509.64 C 693.32 506.12 699.37 501.44 706.38 498.52 C 710.37 512.54 711.45 527.37 709.51 541.82 C 666.54 567.06 623.56 592.31 580.64 617.65 C 575.83 620.39 570.96 623.04 566.54 626.39 C 552.60 621.06 539.88 612.68 529.37 602.09 C 581.77 571.25 634.18 540.42 686.63 509.64 Z" />
</g>
<g id="#78d2b7ff">
<path fill="#78d2b7" opacity="1.00" d=" M 580.64 617.65 C 623.56 592.31 666.54 567.06 709.51 541.82 C 706.68 562.46 697.75 582.26 683.88 597.84 C 666.18 617.90 640.64 630.86 613.97 633.09 C 597.93 634.73 581.58 632.04 566.54 626.39 C 570.96 623.04 575.83 620.39 580.64 617.65 Z" />
</g>
</svg>
